<?xml version="1.0" encoding="UTF-8"?>
<svg version="1.1" xmlns="http://www.w3.org/2000/svg" width="512" height="512">
<path d="M0 0 C3.45201639 1.47721422 5.64961936 3.43794001 8.25 6.125 C8.95640625 6.84945313 9.6628125 7.57390625 10.390625 8.3203125 C11.18726563 9.15175781 11.18726563 9.15175781 12 10 C10.63180788 12.91880986 9.02449742 15.40172374 7.125 18 C0.31026704 28.27220777 -1.1919133 38.94843216 0 51 C1.56272299 58.36234736 4.24714833 64.19095907 9 70 C9.85078125 69.56429687 10.7015625 69.12859375 11.578125 68.6796875 C22.0303949 63.48072229 32.6926159 59.86761784 44 57 C44.70898438 56.81920898 45.41796875 56.63841797 46.1484375 56.45214844 C66.42958059 51.5664133 90.80013402 51.99476746 111 57 C111.680625 57.16097168 112.36125 57.32194336 113.0625 57.48779297 C135.00717963 62.81531431 154.88519356 73.35449399 172 88 C173.21236328 89.02867188 173.21236328 89.02867188 174.44921875 90.078125 C202.86444045 114.88010815 220.33945241 149.44506768 224 187 C224.13470161 189.9051285 224.14786618 192.80495854 224.14717102 195.71289062 C224.15084771 196.55373231 224.1545244 197.39457399 224.1583125 198.26089573 C224.16926566 201.05935352 224.17317886 203.85777407 224.17700195 206.65625 C224.18327297 208.67085384 224.18992033 210.68545653 224.19691467 212.70005798 C224.21788308 219.30003058 224.22831094 225.90000321 224.23828125 232.5 C224.24233163 234.77922579 224.24644864 237.05845145 224.25063133 239.337677 C224.26966786 250.04950391 224.2839016 260.761324 224.2922433 271.47316456 C224.30200745 283.80527593 224.32831212 296.13720742 224.36874419 308.46925545 C224.39898344 318.02288013 224.4137196 327.57645347 224.41702431 337.13012505 C224.419366 342.82592648 224.42821131 348.52153541 224.45348549 354.21728516 C224.47690799 359.58212498 224.48094282 364.94664747 224.47072411 370.31152534 C224.47023206 372.26891707 224.47645353 374.22632519 224.49028015 376.18366814 C224.58899626 390.99988422 223.38769067 405.12148473 216.1875 418.4375 C215.66929687 419.43040039 215.66929687 419.43040039 215.140625 420.44335938 C212.29174302 425.76022886 209.05521401 430.52029811 205 435 C204.43152344 435.66 203.86304688 436.32 203.27734375 437 C190.27421663 451.13503415 172.6327595 457.6943366 154 460 C152.00044752 460.04230679 149.99911371 460.05953473 148 460 C148 457.36 148 454.72 148 452 C143.38 452 138.76 452 134 452 C134 454.64 134 457.28 134 460 C129.05 460 124.1 460 119 460 C119 474.85 119 489.7 119 505 C66.86 505 14.72 505 -39 505 C-39 479.92 -39 454.84 -39 429 C-36.36 429 -33.72 429 -31 429 C-31 424.05 -31 419.1 -31 414 C-33.64 414 -36.28 414 -39 414 C-39 383.97 -39 353.94 -39 323 C-41.64 322.67 -44.28 322.34 -47 322 C-54.49248614 319.94756639 -60.22779746 316.09373389 -66 311 C-66.70253906 310.3915625 -67.40507813 309.783125 -68.12890625 309.15625 C-77.18689165 300.76858989 -83.471253 288.15528346 -84.12025452 275.69035339 C-84.1169236 274.50787773 -84.1169236 274.50787773 -84.11352539 273.30151367 C-84.11344986 272.40095749 -84.11337433 271.50040131 -84.11329651 270.57255554 C-84.10555458 269.13478508 -84.10555458 269.13478508 -84.09765625 267.66796875 C-84.09553383 266.18034782 -84.09553383 266.18034782 -84.09336853 264.66267395 C-84.08778418 261.50425157 -84.07523452 258.34590085 -84.0625 255.1875 C-84.05748298 253.04231873 -84.05292042 250.89713635 -84.04882812 248.75195312 C-84.03781987 243.5012746 -84.02056597 238.25064944 -84 233 C-79.05 233 -74.1 233 -69 233 C-69.02094727 231.59532471 -69.04189453 230.19064941 -69.06347656 228.7434082 C-69.13703633 223.42613319 -69.18221234 218.10890088 -69.21972656 212.79125977 C-69.23958234 210.50960679 -69.2666761 208.22800286 -69.30175781 205.9465332 C-69.7519009 175.87300335 -63.6323426 151.20607667 -49.02807617 124.98266602 C-47.87509501 122.88524041 -47.87509501 122.88524041 -47 120 C-61.44758991 114.98347573 -73.96538692 112.54624785 -88.5859375 119.171875 C-92.72321511 121.39858255 -96.44747238 123.90586304 -100 127 C-103.45201639 125.52278578 -105.64961936 123.56205999 -108.25 120.875 C-108.95640625 120.15054688 -109.6628125 119.42609375 -110.390625 118.6796875 C-110.92171875 118.12539062 -111.4528125 117.57109375 -112 117 C-109.64569062 110.7075731 -102.6777969 107.09632643 -97 104 C-80.35414794 96.58316592 -64.09994337 96.4535935 -47 102 C-43.50437798 103.48848561 -40.31765667 105.13381812 -37 107 C-34.36 104.36 -31.72 101.72 -29 99 C-32.98386249 94.25768148 -37.09387503 89.7679041 -41.4921875 85.41015625 C-42.08299103 84.82076767 -42.67379456 84.23137909 -43.28250122 83.62413025 C-45.14430404 81.76786273 -47.00957745 79.91512915 -48.875 78.0625 C-50.14867011 76.79385328 -51.42210971 75.5249751 -52.6953125 74.25585938 C-55.79422043 71.16789446 -58.89624301 68.08309071 -62 65 C-61.13192399 63.93183555 -60.25505217 62.87081915 -59.375 61.8125 C-58.88773438 61.22082031 -58.40046875 60.62914062 -57.8984375 60.01953125 C-55.48592888 57.45313834 -52.70590288 55.25491907 -50 53 C-39.11 63.89 -28.22 74.78 -17 86 C-13.43478346 84.21739173 -10.28544643 82.24007711 -7 80 C-8.342661 76.54744314 -9.83735083 73.21487521 -11.4375 69.875 C-18.1354143 54.93349886 -19.94561149 37.60985631 -14 22 C-10.47861556 13.71064282 -6.49682006 6.35858985 0 0 Z " fill="#FED9A9" transform="translate(190,7)"/>
<path d="M0 0 C3.45201639 1.47721422 5.64961936 3.43794001 8.25 6.125 C8.95640625 6.84945313 9.6628125 7.57390625 10.390625 8.3203125 C11.18726563 9.15175781 11.18726563 9.15175781 12 10 C10.63180788 12.91880986 9.02449742 15.40172374 7.125 18 C0.31026704 28.27220777 -1.1919133 38.94843216 0 51 C1.56272299 58.36234736 4.24714833 64.19095907 9 70 C9.85078125 69.56429687 10.7015625 69.12859375 11.578125 68.6796875 C22.0303949 63.48072229 32.6926159 59.86761784 44 57 C44.70898438 56.81920898 45.41796875 56.63841797 46.1484375 56.45214844 C66.42958059 51.5664133 90.80013402 51.99476746 111 57 C111.680625 57.16097168 112.36125 57.32194336 113.0625 57.48779297 C135.00717963 62.81531431 154.88519356 73.35449399 172 88 C173.21236328 89.02867188 173.21236328 89.02867188 174.44921875 90.078125 C202.86444045 114.88010815 220.33945241 149.44506768 224 187 C224.13470161 189.9051285 224.14786618 192.80495854 224.14717102 195.71289062 C224.15084771 196.55373231 224.1545244 197.39457399 224.1583125 198.26089573 C224.16926566 201.05935352 224.17317886 203.85777407 224.17700195 206.65625 C224.18327297 208.67085384 224.18992033 210.68545653 224.19691467 212.70005798 C224.21788308 219.30003058 224.22831094 225.90000321 224.23828125 232.5 C224.24233163 234.77922579 224.24644864 237.05845145 224.25063133 239.337677 C224.26966786 250.04950391 224.2839016 260.761324 224.2922433 271.47316456 C224.30200745 283.80527593 224.32831212 296.13720742 224.36874419 308.46925545 C224.39898344 318.02288013 224.4137196 327.57645347 224.41702431 337.13012505 C224.419366 342.82592648 224.42821131 348.52153541 224.45348549 354.21728516 C224.47690799 359.58212498 224.48094282 364.94664747 224.47072411 370.31152534 C224.47023206 372.26891707 224.47645353 374.22632519 224.49028015 376.18366814 C224.58899626 390.99988422 223.38769067 405.12148473 216.1875 418.4375 C215.66929687 419.43040039 215.66929687 419.43040039 215.140625 420.44335938 C212.29174302 425.76022886 209.05521401 430.52029811 205 435 C204.43152344 435.66 203.86304688 436.32 203.27734375 437 C190.27421663 451.13503415 172.6327595 457.6943366 154 460 C152.02 460 150.04 460 148 460 C148.33 454.72 148.66 449.44 149 444 C150.8975 443.7525 152.795 443.505 154.75 443.25 C171.1999642 440.67801863 185.57543919 433.76835885 196.0078125 420.43359375 C200.49356441 413.76322241 203.54064949 406.63596093 206 399 C206.344935 397.92919189 206.68987 396.85838379 207.04525757 395.75512695 C208.6503192 389.19267765 208.30958491 382.39302841 208.31884766 375.6796875 C208.32815687 374.13172386 208.33832701 372.5837652 208.34928894 371.03581238 C208.37649113 366.85254574 208.39170921 362.6693126 208.40471697 358.48598099 C208.42039048 354.10707019 208.44716718 349.72822735 208.4727478 345.34936523 C208.51946104 337.06586256 208.55624115 328.78234699 208.58942068 320.49878025 C208.62769484 311.06463298 208.67709109 301.63055409 208.72740483 292.19646454 C208.83061376 272.79769313 208.91990995 253.39887994 209 234 C204.54056122 234.02302403 200.08361628 234.10064384 195.625 234.1875 C194.37332031 234.19330078 193.12164062 234.19910156 191.83203125 234.20507812 C183.9226156 234.39142561 177.53958717 235.29463792 171 240 C165.61658401 245.67644431 164.8474698 250.97591996 164.79467773 258.51049805 C164.78477814 259.37900391 164.77487854 260.24750977 164.76467896 261.14233398 C164.73307056 264.01543443 164.70830908 266.88855142 164.68359375 269.76171875 C164.66302366 271.75283744 164.64202717 273.74395177 164.62062073 275.73506165 C164.56540579 280.97767608 164.51599392 286.22032988 164.46777344 291.4630127 C164.41755423 296.81196602 164.36187035 302.16086211 164.30664062 307.50976562 C164.1990661 318.00646154 164.09761952 328.50320712 164 339 C159.05 339 154.1 339 149 339 C148.90709397 327.30784928 148.83613053 315.61578719 148.79275131 303.92334175 C148.77192564 298.49335769 148.74369987 293.06362721 148.69824219 287.63378906 C148.65460524 282.38827923 148.63082518 277.14301247 148.62049103 271.89733505 C148.61313163 269.90156099 148.59876073 267.90579941 148.57707977 265.91012955 C148.42231462 251.06669977 149.42922652 240.28560038 160 229 C168.66413093 220.75806189 178.56754367 218.52987702 190.27539062 218.6484375 C192.21188477 218.69871094 192.21188477 218.69871094 194.1875 218.75 C195.53447828 218.77012111 196.881486 218.78836185 198.22851562 218.8046875 C201.48644916 218.85139622 204.74282655 218.91688438 208 219 C207.90526601 214.3772893 207.79893538 209.75503055 207.68261719 205.1328125 C207.64472694 203.5658262 207.60981074 201.99876466 207.578125 200.43164062 C207.38734551 191.10729291 206.84568449 182.17288702 205 173 C204.81961182 171.97898193 204.63922363 170.95796387 204.45336914 169.90600586 C199.00856976 139.89390063 178.33108842 111.42921766 153.6315918 94.08618164 C124.11092942 74.10314081 88.49316789 65.03085406 53.125 71.5625 C32.33504134 75.84815799 12.64175986 84.80879942 -4 98 C-2.72620281 100.73806872 -1.34756812 102.96597375 0.625 105.25 C1.800625 106.61125 1.800625 106.61125 3 108 C-0.3 111.3 -3.6 114.6 -7 118 C-8.72526042 116.50260417 -10.45052083 115.00520833 -12.17578125 113.5078125 C-14.13498212 111.8359553 -14.13498212 111.8359553 -17 110 C-44.25363859 137.97776909 -53.50221345 173.09087174 -53.75 211.25 C-53.77824609 213.47137646 -53.80818506 215.69273206 -53.83984375 217.9140625 C-53.91576126 223.27623602 -53.95723332 228.63705814 -54 234 C-46.41 234 -38.82 234 -31 234 C-31 238.95 -31 243.9 -31 249 C-43.21 249 -55.42 249 -68 249 C-69.06830535 272.83748182 -69.06830535 272.83748182 -60 294 C-59.44957031 294.72316406 -58.89914063 295.44632812 -58.33203125 296.19140625 C-50.21534135 305.42630996 -38.09034424 308.01811047 -26.37890625 308.8515625 C-25.59386719 308.90054687 -24.80882812 308.94953125 -24 309 C-23.90203125 310.30710937 -23.8040625 311.61421875 -23.703125 312.9609375 C-21.06219577 345.6474443 -10.68779398 375.70330799 12 400 C12.47163574 400.51401367 12.94327148 401.02802734 13.42919922 401.55761719 C36.05557898 426.03057925 69.11783847 441.89352884 102.45500183 443.42437744 C112.96723668 443.82741463 123.48096225 443.94147222 134 444 C134 449.28 134 454.56 134 460 C129.05 460 124.1 460 119 460 C119 474.85 119 489.7 119 505 C66.86 505 14.72 505 -39 505 C-39 479.92 -39 454.84 -39 429 C-36.36 429 -33.72 429 -31 429 C-31 424.05 -31 419.1 -31 414 C-33.64 414 -36.28 414 -39 414 C-39 383.97 -39 353.94 -39 323 C-41.64 322.67 -44.28 322.34 -47 322 C-54.49248614 319.94756639 -60.22779746 316.09373389 -66 311 C-66.70253906 310.3915625 -67.40507813 309.783125 -68.12890625 309.15625 C-77.18689165 300.76858989 -83.471253 288.15528346 -84.12025452 275.69035339 C-84.1169236 274.50787773 -84.1169236 274.50787773 -84.11352539 273.30151367 C-84.11344986 272.40095749 -84.11337433 271.50040131 -84.11329651 270.57255554 C-84.10555458 269.13478508 -84.10555458 269.13478508 -84.09765625 267.66796875 C-84.09553383 266.18034782 -84.09553383 266.18034782 -84.09336853 264.66267395 C-84.08778418 261.50425157 -84.07523452 258.34590085 -84.0625 255.1875 C-84.05748298 253.04231873 -84.05292042 250.89713635 -84.04882812 248.75195312 C-84.03781987 243.5012746 -84.02056597 238.25064944 -84 233 C-79.05 233 -74.1 233 -69 233 C-69.02094727 231.59532471 -69.04189453 230.19064941 -69.06347656 228.7434082 C-69.13703633 223.42613319 -69.18221234 218.10890088 -69.21972656 212.79125977 C-69.23958234 210.50960679 -69.2666761 208.22800286 -69.30175781 205.9465332 C-69.7519009 175.87300335 -63.6323426 151.20607667 -49.02807617 124.98266602 C-47.87509501 122.88524041 -47.87509501 122.88524041 -47 120 C-61.44758991 114.98347573 -73.96538692 112.54624785 -88.5859375 119.171875 C-92.72321511 121.39858255 -96.44747238 123.90586304 -100 127 C-103.45201639 125.52278578 -105.64961936 123.56205999 -108.25 120.875 C-108.95640625 120.15054688 -109.6628125 119.42609375 -110.390625 118.6796875 C-110.92171875 118.12539062 -111.4528125 117.57109375 -112 117 C-109.64569062 110.7075731 -102.6777969 107.09632643 -97 104 C-80.35414794 96.58316592 -64.09994337 96.4535935 -47 102 C-43.50437798 103.48848561 -40.31765667 105.13381812 -37 107 C-34.36 104.36 -31.72 101.72 -29 99 C-32.98386249 94.25768148 -37.09387503 89.7679041 -41.4921875 85.41015625 C-42.08299103 84.82076767 -42.67379456 84.23137909 -43.28250122 83.62413025 C-45.14430404 81.76786273 -47.00957745 79.91512915 -48.875 78.0625 C-50.14867011 76.79385328 -51.42210971 75.5249751 -52.6953125 74.25585938 C-55.79422043 71.16789446 -58.89624301 68.08309071 -62 65 C-61.13192399 63.93183555 -60.25505217 62.87081915 -59.375 61.8125 C-58.88773438 61.22082031 -58.40046875 60.62914062 -57.8984375 60.01953125 C-55.48592888 57.45313834 -52.70590288 55.25491907 -50 53 C-39.11 63.89 -28.22 74.78 -17 86 C-13.43478346 84.21739173 -10.28544643 82.24007711 -7 80 C-8.342661 76.54744314 -9.83735083 73.21487521 -11.4375 69.875 C-18.1354143 54.93349886 -19.94561149 37.60985631 -14 22 C-10.47861556 13.71064282 -6.49682006 6.35858985 0 0 Z " fill="#010101" transform="translate(190,7)"/>
<path d="M0 0 C2.72872821 3.41091026 4.87615745 6.37549229 6.99121094 10.11181641 C11.79913361 18.58594448 17.38823119 25.86624944 24 33 C24.50015625 33.54398437 25.0003125 34.08796875 25.515625 34.6484375 C44.50740109 55.07898451 68.99026101 69.26490699 95.8828125 76.42504883 C98.93038083 77.25265762 101.96356141 78.13244612 105 79 C112.26 79.99 119.52 80.98 127 82 C127 97.18 127 112.36 127 128 C79.81 128 32.62 128 -16 128 C-16 102.92 -16 77.84 -16 52 C-13.36 52 -10.72 52 -8 52 C-8 47.05 -8 42.1 -8 37 C-5.36 37 -2.72 37 0 37 C0 24.79 0 12.58 0 0 Z " fill="#FEB57F" transform="translate(167,384)"/>
<path d="M0 0 C4.29 0 8.58 0 13 0 C13.02578125 1.9284375 13.0515625 3.856875 13.078125 5.84375 C13.13442144 8.39585548 13.19176843 10.94793794 13.25 13.5 C13.26417969 14.7684375 13.27835938 16.036875 13.29296875 17.34375 C13.49546464 25.11959226 13.80133969 31.61848108 19.44628906 37.50927734 C24.6331378 42.06855325 28.32182092 43.24561855 35.171875 43.4140625 C36.1955014 43.44311172 36.1955014 43.44311172 37.23980713 43.4727478 C39.40974608 43.53231098 41.57973877 43.57883446 43.75 43.625 C45.22528297 43.66320131 46.70054415 43.7022543 48.17578125 43.7421875 C51.78365418 43.83799235 55.39169083 43.92210916 59 44 C59.09796875 45.21429688 59.1959375 46.42859375 59.296875 47.6796875 C62.21030258 81.92518026 67.77589427 111.98393938 90 139 C90.52207031 139.67546875 91.04414063 140.3509375 91.58203125 141.046875 C109.15269423 163.12413453 138.83347029 175.21731105 166 179 C173.19866755 179.64592182 180.41890523 179.60619452 187.640625 179.609375 C189.6298758 179.62440635 191.61911436 179.64114356 193.6083374 179.65948486 C198.77018908 179.70261548 203.93187269 179.72303491 209.09387207 179.73822021 C214.39080529 179.75799024 219.68756201 179.79993566 224.984375 179.83984375 C235.32286147 179.91455548 245.66130735 179.96520124 256 180 C248.1122554 188.16320028 235.69161199 194.47323564 224.1640625 195.171875 C221.76599834 195.18530953 219.39365059 195.13750759 217 195 C217 197.64 217 200.28 217 203 C212.05 203 207.1 203 202 203 C202 200.36 202 197.72 202 195 C200.95473145 195.0314209 199.90946289 195.0628418 198.83251953 195.09521484 C157.30760702 196.23082319 119.34925869 189.33582507 88 160 C87.45359863 159.49597656 86.90719727 158.99195313 86.34423828 158.47265625 C62.26300387 136.07410595 47.36273487 105.7132072 44 73 C43.9371611 70.66741994 43.91319479 68.33329975 43.9375 66 C43.94652344 64.865625 43.95554688 63.73125 43.96484375 62.5625 C43.97644531 61.716875 43.98804688 60.87125 44 60 C43.27296875 60.04640625 42.5459375 60.0928125 41.796875 60.140625 C31.35743092 60.51537427 21.97867303 58.48394271 13.8046875 51.68359375 C5.93261768 44.33973641 -0.06969474 36.36314254 -0.47200012 25.19456482 C-0.49951299 21.73028947 -0.41851191 18.27488898 -0.3125 14.8125 C-0.28735505 13.36917979 -0.26455293 11.92581678 -0.24414062 10.48242188 C-0.19399581 6.98632547 -0.09611147 3.49632176 0 0 Z " fill="#FCB47F" transform="translate(122,256)"/>
<path d="M0 0 C17.93573476 0.60457533 33.36300128 6.22691802 45.8671875 19.42578125 C56.41500261 32.15656908 60.34845296 44.71132407 61 61 C55.72 61 50.44 61 45 61 C44.62875 58.9375 44.2575 56.875 43.875 54.75 C41.38120781 43.21329783 36.42989703 32.33833846 26.61328125 25.28515625 C17.99084048 19.88457696 9.99456071 17.62411612 0 16 C0 10.72 0 5.44 0 0 Z " fill="#000000" transform="translate(413,113)"/>
<path d="M0 0 C0 5.28 0 10.56 0 16 C-1.85625 16.185625 -3.7125 16.37125 -5.625 16.5625 C-14.45571376 17.89872642 -23.71456507 21.45434006 -30 28 C-30.66 28 -31.32 28 -32 28 C-32.40412109 28.85851562 -32.40412109 28.85851562 -32.81640625 29.734375 C-34.03134688 32.06000393 -35.42384076 34.10853807 -36.9375 36.25 C-42.00685578 43.82319817 -43.54614758 51.05321585 -45 60 C-50.28 60 -55.56 60 -61 60 C-60.28785109 43.62057505 -55.37180541 27.53125813 -43 16 C-35.60058258 9.65921756 -28.2304944 5.13389111 -19 2 C-17.93845703 1.63261719 -17.93845703 1.63261719 -16.85546875 1.2578125 C-11.26259692 -0.40524104 -5.77099458 -0.14427486 0 0 Z " fill="#000000" transform="translate(99,196)"/>
<path d="M0 0 C5.28 0 10.56 0 16 0 C16.81263465 15.23689969 11.65866239 28.7327863 1.6875 40.25 C-8.14810135 50.59292854 -21.19100427 59.55913083 -35.9296875 60.109375 C-38.62000387 60.12306618 -41.31048913 60.06723777 -44 60 C-44 54.72 -44 49.44 -44 44 C-42.1025 43.79375 -40.205 43.5875 -38.25 43.375 C-27.13184635 41.63476725 -17.43159993 36.5278321 -10 28 C-3.73665992 18.98894943 -0.99872531 10.81952423 0 0 Z " fill="#000000" transform="translate(390,0)"/>
<path d="M0 0 C5.28 0 10.56 0 16 0 C16 25.08 16 50.16 16 76 C10.72 76 5.44 76 0 76 C0 50.92 0 25.84 0 0 Z " fill="#040302" transform="translate(151,436)"/>
<path d="M0 0 C3.04890812 1.52445406 5.45505902 2.98149034 8.1875 4.9375 C17.38308668 11.03311581 25.99870898 12.06728943 37 11 C44.16178484 9.16725978 51.01279982 5.54133354 56 0 C59.23861303 1.44424635 61.61969163 3.25772247 64.25 5.625 C64.95640625 6.25664062 65.6628125 6.88828125 66.390625 7.5390625 C67.18726563 8.26222656 67.18726563 8.26222656 68 9 C65.26479573 16.00212294 56.85596939 20.34266053 50.3125 23.375 C37.80029311 28.74095646 22.719927 28.90051675 9.96875 24.328125 C1.74993707 20.65128764 -4.57174427 16.1887711 -10 9 C-6.7 6.03 -3.4 3.06 0 0 Z " fill="#050403" transform="translate(242,229)"/>
<path d="M0 0 C1.78513619 0.02009777 3.57029425 0.03834274 5.35546875 0.0546875 C9.6958596 0.09841914 14.0351846 0.16726411 18.375 0.25 C18.375 5.2 18.375 10.15 18.375 15.25 C17.28558105 15.25410889 16.19616211 15.25821777 15.07373047 15.26245117 C11.01417362 15.28429807 6.95557838 15.3386443 2.89648438 15.40258789 C1.14299772 15.42571968 -0.61062692 15.44015229 -2.36425781 15.44555664 C-4.89214584 15.45488199 -7.41787817 15.49594635 -9.9453125 15.54296875 C-10.72367462 15.5390361 -11.50203674 15.53510345 -12.3039856 15.53105164 C-18.05022004 15.68351903 -20.61136132 17.11822168 -24.625 21.25 C-25.72569633 23.40273543 -25.72569633 23.40273543 -26 25.5625 C-26.20625 26.779375 -26.4125 27.99625 -26.625 29.25 C-31.575 29.25 -36.525 29.25 -41.625 29.25 C-41.625 19.25419671 -39.16347134 13.17375879 -32.2109375 6.0390625 C-22.0990059 -0.95680559 -11.80584729 -0.23187323 0 0 Z " fill="#070605" transform="translate(320.625,368.75)"/>
<path d="M0 0 C4.95 0 9.9 0 15 0 C15 9.9 15 19.8 15 30 C10.05 30 5.1 30 0 30 C0 20.1 0 10.2 0 0 Z " fill="#060504" transform="translate(369,271)"/>
<path d="M0 0 C4.95 0 9.9 0 15 0 C15 9.9 15 19.8 15 30 C10.05 30 5.1 30 0 30 C0 20.1 0 10.2 0 0 Z " fill="#050503" transform="translate(264,271)"/>
<path d="M0 0 C4.95 0 9.9 0 15 0 C15 4.95 15 9.9 15 15 C10.05 15 5.1 15 0 15 C0 10.05 0 5.1 0 0 Z " fill="#FFFFFF" transform="translate(196,151)"/>
<path d="M0 0 C4.95 0 9.9 0 15 0 C15 4.95 15 9.9 15 15 C10.05 15 5.1 15 0 15 C0 10.05 0 5.1 0 0 Z " fill="#FFFFFF" transform="translate(166,151)"/>
</svg>
